:SAMPLES-PER-SECOND 30
:FULLY-SPECIFIED
:DEGREES
154
root  -54.948 35.0833 30.7965 -171.639 55.0379 -178.831
RightUpLeg  -4.97416 -14.6409 -1.39879
RightLeg  2.08845 -1.46955 0.0415423
RightFoot  7.14664 0.0320285 0.0243603
RightToes  -23.0694 -0.100523 -0.202705
Spine  -3.80538 0.893616 -2.75102
Spine1  -7.38929 2.48439 -5.01713
HEad  -63.4212 0.831236 -6.6046
LeftShoulder1  -1.94126e-019 -3.10601e-018 -2.51263e-017
LeftArm  10.9805 -45.9575 -43.4301
LeftForeArm  64.0947 -78.7646 -66.8664
LeftHand  1.10913 -5.80583 -11.1279
RightShoulder  -4.96962e-017 0 -2.36833e-017
RightArm  9.98475 -16.7943 70.2493
RightForeArm  52.5459 44.3526 7.50108
RightHand  -0.136941 2.60215 -2.19744
LeftUpLeg  -4.0803 3.36562 1.3472
LeftLeg  -0.0254804 15.1458 -0.969887
LeftFoot  8.22383 -0.165784 2.46733
LeftToes  -19.1766 1.48321e-006 1.01846e-007
155
root  -54.984 35.0883 30.7079 -171.775 55.7467 -178.956
RightUpLeg  -4.78766 -14.2598 -1.6718
RightLeg  1.63402 -1.10156 0.039911
RightFoot  7.44652 0.0300088 0.0661196
RightToes  -23.3576 -0.100956 -0.203255
Spine  -3.87485 0.617377 -2.39089
Spine1  -7.45886 1.96242 -4.25968
HEad  -64.1178 2.08781 -7.66808
LeftShoulder1  -1.94126e-019 -3.10601e-018 -2.51263e-017
LeftArm  17.6553 -43.5613 -42.9818
LeftForeArm  92.2229 -79.6566 -94.3527
LeftHand  1.64693 -7.44574 -14.4215
RightShoulder  -4.96962e-017 0 -2.36833e-017
RightArm  11.6406 -15.9241 69.9979
RightForeArm  52.4734 44.5365 7.56597
RightHand  -0.0976981 2.77865 -1.60496
LeftUpLeg  -3.86291 3.66346 1.06207
LeftLeg  -0.140299 15.5572 -1.02649
LeftFoot  8.07617 -0.164724 2.49462
LeftToes  -18.58 1.48321e-006 1.01846e-007
156
root  -55.0024 35.0837 30.6013 -171.944 56.1486 -179.064
RightUpLeg  -4.67516 -14.1123 -1.9405
RightLeg  1.59055 -0.899956 0.0333572
RightFoot  7.46342 0.0292873 0.089267
RightToes  -23.4806 -0.1017 -0.204201
Spine  -3.77802 0.321166 -1.99332
Spine1  -7.20104 1.36955 -3.42373
HEad  -65.2085 2.94651 -8.71077
LeftShoulder1  -1.94126e-019 -3.10601e-018 -2.51263e-017
LeftArm  19.5103 -40.3015 -44.3479
LeftForeArm  109.706 -79.3163 -108.399
LeftHand  2.00059 -7.37838 -17.6441
RightShoulder  -4.96962e-017 0 -2.36833e-017
RightArm  11.7167 -15.2774 70.0141
RightForeArm  53.018 44.9268 7.6671
RightHand  -0.0748348 2.59699 -1.29476
LeftUpLeg  -3.64758 4.03552 0.833034
LeftLeg  -0.140775 15.6229 -1.03084
LeftFoot  7.14032 -0.129501 2.23694
LeftToes  -14.9436 1.48321e-006 1.01846e-007
157
root  -55.082 35.0753 30.5406 -172.542 56.9433 -179.319
RightUpLeg  -4.67108 -12.7057 -2.33268
RightLeg  2.02714 -1.47567 0.04328
RightFoot  7.38198 0.0352728 0.0164436
RightToes  -23.599 -0.102762 -0.20541
Spine  -3.66584 0.161977 -1.79377
Spine1  -6.96764 1.03471 -3.07469
HEad  -65.6335 4.19093 -8.78773
LeftShoulder1  -1.94126e-019 -3.10601e-018 -2.51263e-017
LeftArm  17.1266 -37.1379 -46.6867
LeftForeArm  90.6229 -79.9207 -87.5659
LeftHand  1.96296 -7.67856 -16.9024
RightShoulder  -4.96962e-017 0 -2.36833e-017
RightArm  11.1203 -15.106 70.61
RightForeArm  53.2216 44.7201 7.58531
RightHand  -0.245674 5.27391 -2.98252
LeftUpLeg  -3.46992 4.53595 0.513696
LeftLeg  0.425171 15.8125 -0.888344
LeftFoot  7.38844 -0.14 2.32964
LeftToes  -17.8275 1.48321e-006 1.01846e-007
158
root  -55.117 35.0715 30.4418 -173.061 57.2973 -179.472
RightUpLeg  -4.52821 -12.2352 -2.67351
RightLeg  2.49238 -1.58509 0.0336732
RightFoot  7.2769 0.0370808 0.00311126
RightToes  -23.7756 -0.103934 -0.206672
Spine  -3.5903 -0.0236961 -1.80707
Spine1  -6.83804 0.666249 -3.13448
HEad  -65.2505 5.16742 -7.8528
LeftShoulder1  -1.94126e-019 -3.10601e-018 -2.51263e-017
LeftArm  11.7046 -34.3647 -49.1484
LeftForeArm  62.6966 -78.3231 -59.0589
LeftHand  1.41505 -7.06105 -12.7591
RightShoulder  -4.96962e-017 0 -2.36833e-017
RightArm  10.2034 -16.0894 71.3302
RightForeArm  52.8809 44.7556 7.60558
RightHand  -0.176224 4.38575 -2.37443
LeftUpLeg  -3.16786 4.55711 0.282136
LeftLeg  0.802426 16.107 -0.799566
LeftFoot  6.99319 -0.127588 2.24942
LeftToes  -17.1136 1.48321e-006 1.01846e-007
159
root  -55.1943 35.0682 30.3645 -173.441 58.1509 -179.721
RightUpLeg  -4.92509 -11.0684 -3.01462
RightLeg  3.26738 -1.94726 0.0150392
RightFoot  7.09898 0.0410023 -0.0406965
RightToes  -23.919 -0.105188 -0.208015
Spine  -3.51716 0.16045 -1.34732
Spine1  -6.63489 1.03669 -2.27241
HEad  -64.6738 5.5925 -8.76113
LeftShoulder1  -1.94126e-019 -3.10601e-018 -2.51263e-017
LeftArm  4.12784 -31.4082 -52.588
LeftForeArm  47.486 -75.5985 -43.6372
LeftHand  0.590557 -4.48615 -6.65022
RightShoulder  -4.96962e-017 0 -2.36833e-017
RightArm  9.31833 -17.1678 70.518
RightForeArm  52.753 45.8724 7.98525
RightHand  -0.122343 2.34618 -2.03064
LeftUpLeg  -3.04251 4.76502 -0.069151
LeftLeg  1.03585 16.7382 -0.762674
LeftFoot  6.72089 -0.122179 2.24212
LeftToes  -16.6622 1.48321e-006 1.01846e-007
160
root  -55.2521 35.0674 30.2634 -173.497 58.0702 -179.723
RightUpLeg  -5.10175 -11.5245 -3.21622
RightLeg  3.75055 -1.51945 -0.000842945
RightFoot  7.02732 0.0381185 0.012403
RightToes  -23.9537 -0.106497 -0.209467
Spine  -3.53379 0.00722186 -1.40628
Spine1  -6.68428 0.769455 -2.37271
HEad  -63.8221 6.30994 -8.2078
LeftShoulder1  -1.94126e-019 -3.10601e-018 -2.51263e-017
LeftArm  -0.985822 -29.1349 -54.7715
LeftForeArm  41.9102 -74.0961 -38.6078
LeftHand  -0.206009 -0.244777 4.30638
RightShoulder  -4.96962e-017 0 -2.36833e-017
RightArm  8.82062 -18.4713 70.8598
RightForeArm  51.9065 45.0318 7.74121
RightHand  -0.116642 2.32775 -1.94816
LeftUpLeg  -3.13903 4.04388 -0.273058
LeftLeg  1.36609 17.3859 -0.69248
LeftFoot  6.42747 -0.116099 2.22904
LeftToes  -16.2303 1.48321e-006 1.01846e-007
161
root  -55.3517 35.0603 30.2283 -173.696 58.9576 179.993
RightUpLeg  -5.58041 -10.0912 -3.48011
RightLeg  4.10522 -2.10765 -0.0144648
RightFoot  7.05734 0.0438263 -0.0576865
RightToes  -24.3816 -0.107832 -0.211056
Spine  -3.57238 0.260131 -1.36683
Spine1  -6.76253 1.28365 -2.31893
HEad  -63.2469 6.3268 -7.87898
LeftShoulder1  -1.94126e-019 -3.10601e-018 -2.51263e-017
LeftArm  -0.272076 -27.7459 -54.6877
LeftForeArm  39.0958 -72.9682 -35.422
LeftHand  -0.331876 2.60647 13.5933
RightShoulder  -4.96962e-017 0 -2.36833e-017
RightArm  8.09755 -19.5465 71.0135
RightForeArm  51.6754 43.8307 7.36527
RightHand  -0.1211 2.24561 -2.03044
LeftUpLeg  -3.38489 4.82666 -0.606951
LeftLeg  1.75738 17.472 -0.578229
LeftFoot  6.20583 -0.108782 2.16807
LeftToes  -16.0292 1.48321e-006 1.01846e-007
162
root  -55.4184 35.0548 30.1567 -173.878 59.07 179.753
RightUpLeg  -5.59947 -10.1155 -3.75238
RightLeg  3.98561 -1.97121 -0.00937829
RightFoot  7.16527 0.0438903 -0.0476086
RightToes  -24.6092 -0.109166 -0.212809
Spine  -3.56938 0.385217 -1.40265
Spine1  -6.76945 1.53382 -2.40352
HEad  -63.0359 5.69772 -7.43806
LeftShoulder1  -1.94126e-019 -3.10601e-018 -2.51263e-017
LeftArm  2.98151 -26.8787 -52.8818
LeftForeArm  42.0182 -71.9932 -31.9804
LeftHand  -0.48913 -1.50091 8.40734
RightShoulder  -4.96962e-017 0 -2.36833e-017
RightArm  6.90899 -20.7202 71.3688
RightForeArm  51.8377 42.0898 6.82232
RightHand  -0.106329 2.1583 -1.81931
LeftUpLeg  -3.62862 4.88651 -0.889502
LeftLeg  2.18398 17.5223 -0.451353
LeftFoot  5.89639 -0.0987464 2.07268
LeftToes  -15.5743 1.48321e-006 1.01846e-007
163
root  -55.48 35.0595 30.0875 -173.926 58.9531 179.652
RightUpLeg  -5.45588 -10.4604 -3.9431
RightLeg  3.59528 -1.7279 0.00359053
RightFoot  7.44771 0.0435014 -0.0316133
RightToes  -24.9077 -0.110473 -0.215063
Spine  -3.48673 0.647042 -1.01205
Spine1  -6.56153 2.0348 -1.64792
HEad  -63.2641 4.51636 -8.65373
LeftShoulder1  -1.94126e-019 -3.10601e-018 -2.51263e-017
LeftArm  8.49859 -25.7859 -52.0912
LeftForeArm  42.4752 -71.7976 -31.3724
LeftHand  0.117812 -5.54244 -0.931346
RightShoulder  -4.96962e-017 0 -2.36833e-017
RightArm  5.90161 -21.8251 70.3177
RightForeArm  52.2936 41.3637 6.59241
RightHand  -0.082631 2.15083 -1.45503
LeftUpLeg  -3.93409 4.67107 -1.08983
LeftLeg  2.67062 17.6084 -0.306286
LeftFoot  5.61393 -0.0895566 1.98799
LeftToes  -15.2884 1.48321e-006 1.01846e-007
